<svg width="80" height="73" viewBox="0 0 80 73" fill="none" xmlns="http://www.w3.org/2000/svg">
<circle cx="36.5" cy="36.5" r="35" fill="#BED8BA" stroke="white" stroke-width="3"/>
<g clip-path="url(#clip0_4337_2111)">
<path d="M80 53.9953C80.0008 54.4815 79.7368 54.796 79.2067 54.9041C78.6011 55.0277 78.003 55.1727 77.4107 55.3489C75.8115 55.8255 74.7993 56.8719 74.3298 58.4624C74.1605 59.0367 74.0274 59.6198 73.898 60.2038C73.793 60.6781 73.4263 60.9964 72.9996 61.0001C72.5287 61.0038 72.2144 60.727 72.0976 60.1964C71.9749 59.6391 71.8425 59.0848 71.6887 58.5349C71.2163 56.8446 70.1375 55.7759 68.4496 55.303C67.9253 55.1564 67.3997 55.021 66.8658 54.9174C66.2913 54.8064 66.003 54.5074 66 54.0145C65.9971 53.5423 66.3187 53.1923 66.8533 53.0842C67.4499 52.9636 68.0392 52.8178 68.6218 52.6402C70.2063 52.1554 71.2074 51.1082 71.671 49.5274C71.8425 48.9435 71.9786 48.3522 72.1072 47.7587C72.213 47.2695 72.525 47.0053 72.9871 47.0001C73.464 46.9949 73.7841 47.2591 73.8936 47.7601C74.0311 48.3899 74.1775 49.016 74.3653 49.6333C74.8629 51.2688 75.9682 52.2516 77.5911 52.7038C78.1331 52.8548 78.6795 52.9821 79.2303 53.0968C79.7405 53.2034 80 53.5157 80.0008 53.9945L80 53.9953Z" fill="#E5AF9A"/>
<g clip-path="url(#clip1_4337_2111)">
<path d="M66.9938 50.0001C66.4564 49.9976 66.0025 49.5392 66 48.9946C65.9967 48.4196 66.4497 47.9917 67.0547 48.0001C67.5803 48.0069 68.0084 48.4627 68.0009 49.0065C67.9933 49.5477 67.5328 50.0027 66.9946 50.0001H66.9938Z" fill="#E5AF9A"/>
</g>
</g>
<g clip-path="url(#clip2_4337_2111)">
<path d="M17 10.9953C17.0008 11.4815 16.7368 11.796 16.2067 11.9041C15.6011 12.0277 15.003 12.1727 14.4107 12.3489C12.8115 12.8255 11.7993 13.8719 11.3298 15.4624C11.1605 16.0367 11.0274 16.6198 10.898 17.2038C10.793 17.6781 10.4263 17.9964 9.99965 18.0001C9.52867 18.0038 9.21444 17.727 9.09762 17.1964C8.97488 16.6391 8.84253 16.0848 8.68874 15.5349C8.21629 13.8446 7.13754 12.7759 5.44956 12.303C4.92534 12.1564 4.39965 12.021 3.86582 11.9174C3.29133 11.8064 3.00298 11.5074 3.00002 11.0145C2.99706 10.5423 3.31869 10.1923 3.85325 10.0842C4.44993 9.9636 5.03921 9.8178 5.62183 9.64019C7.2063 9.15544 8.20741 8.10823 8.671 6.52743C8.84253 5.94351 8.97858 5.35219 9.10723 4.75865C9.21296 4.26946 9.52497 4.00526 9.98708 4.00007C10.464 3.99489 10.7841 4.2591 10.8936 4.76013C11.0311 5.38994 11.1775 6.01604 11.3653 6.63326C11.8629 8.26883 12.9682 9.25165 14.5911 9.70383C15.1331 9.85481 15.6795 9.9821 16.2303 10.0968C16.7405 10.2034 17 10.5157 17.0008 10.9945L17 10.9953Z" fill="#E5AF9A"/>
<g clip-path="url(#clip3_4337_2111)">
<path d="M3.99376 7.00012C3.45642 6.99759 3.00252 6.53924 3.00002 5.99463C2.99668 5.41957 3.44975 4.99167 4.05467 5.00012C4.58033 5.00689 5.00836 5.4627 5.00085 6.00647C4.99334 6.54769 4.53277 7.00266 3.99459 7.00012H3.99376Z" fill="#E5AF9A"/>
</g>
</g>
<path d="M16.3333 51C15.0447 51 14 49.9553 14 48.6667V48.6667C14 47.378 15.0447 46.3333 16.3333 46.3333H55.6667C56.9553 46.3333 58 47.378 58 48.6667V48.6667C58 49.9553 56.9553 51 55.6667 51H16.3333ZM16.3333 39.3333C15.0447 39.3333 14 38.2887 14 37V37C14 35.7113 15.0447 34.6667 16.3333 34.6667H55.6667C56.9553 34.6667 58 35.7113 58 37V37C58 38.2887 56.9553 39.3333 55.6667 39.3333H16.3333ZM16.3333 27.6667C15.0447 27.6667 14 26.622 14 25.3333V25.3333C14 24.0447 15.0447 23 16.3333 23H55.6667C56.9553 23 58 24.0447 58 25.3333V25.3333C58 26.622 56.9553 27.6667 55.6667 27.6667H16.3333Z" fill="#222222"/>
<defs>
<clipPath id="clip0_4337_2111">
<rect width="14" height="14" fill="white" transform="translate(66 47)"/>
</clipPath>
<clipPath id="clip1_4337_2111">
<rect width="2" height="2" fill="white" transform="translate(66 48)"/>
</clipPath>
<clipPath id="clip2_4337_2111">
<rect width="14" height="14" fill="white" transform="translate(3 4)"/>
</clipPath>
<clipPath id="clip3_4337_2111">
<rect width="2" height="2" fill="white" transform="translate(3 5)"/>
</clipPath>
</defs>
</svg>
