<svg width="23" height="25" viewBox="0 0 23 25" fill="none" xmlns="http://www.w3.org/2000/svg">
<path d="M11.4661 15.6861C13.2196 15.6861 14.6412 14.2646 14.6412 12.511C14.6412 10.7575 13.2196 9.33594 11.4661 9.33594C9.71255 9.33594 8.29102 10.7575 8.29102 12.511C8.29102 14.2646 9.71255 15.6861 11.4661 15.6861Z" fill="#E5AF9A"/>
<path d="M15.1836 3.45312H7.81641C4.99891 3.45312 2.69531 5.75807 2.69531 8.57422V16.4221C2.69531 19.24 5.0007 21.5432 7.81641 21.5432H15.1836C18.0011 21.5432 20.3047 19.2382 20.3047 16.4221V8.57602C20.3047 5.75807 17.9993 3.45312 15.1836 3.45312ZM11.4897 17.3538C10.5305 17.3538 9.5929 17.0695 8.79536 16.5367C7.99783 16.0039 7.37621 15.2465 7.00912 14.3604C6.64203 13.4743 6.54596 12.4992 6.73306 11.5585C6.92016 10.6178 7.38202 9.75366 8.06023 9.07545C8.73845 8.39723 9.60256 7.93537 10.5433 7.74827C11.484 7.56118 12.4591 7.65725 13.3452 8.02433C14.2313 8.39142 14.9886 9.01304 15.5215 9.81058C16.0543 10.6081 16.3386 11.5457 16.3385 12.5049C16.3384 13.7908 15.8275 15.0241 14.9182 15.9334C14.0089 16.8427 12.7756 17.3536 11.4897 17.3538ZM16.4163 8.72875C16.1892 8.72875 15.9672 8.66142 15.7784 8.53527C15.5896 8.40913 15.4424 8.22983 15.3555 8.02005C15.2686 7.81027 15.2458 7.57943 15.2901 7.35671C15.3343 7.13399 15.4437 6.9294 15.6042 6.7688C15.7647 6.60821 15.9693 6.49882 16.192 6.45446C16.4147 6.41011 16.6455 6.43278 16.8553 6.51962C17.0652 6.60645 17.2445 6.75355 17.3707 6.94231C17.4969 7.13107 17.5644 7.35302 17.5645 7.5801C17.5645 7.88462 17.4435 8.17667 17.2282 8.392C17.0128 8.60733 16.7208 8.7283 16.4163 8.7283V8.72875Z" fill="#E5AF9A"/>
</svg>
