<svg width="23" height="23" viewBox="0 0 23 23" fill="none" xmlns="http://www.w3.org/2000/svg">
<path d="M11.8867 2.10938C6.74855 2.10938 4.11523 5.79836 4.11523 8.82834C4.11523 10.6728 4.77424 12.3857 6.35504 12.9126C6.61828 13.0443 6.88197 12.9126 6.88197 12.6489C6.88197 12.5173 7.01359 11.9904 7.14566 11.7267C7.27773 11.463 7.14566 11.3318 7.01359 11.0681C6.61828 10.5412 6.35504 9.88221 6.35504 8.96041C6.35504 6.19367 8.46277 3.82225 11.7564 3.82225C14.6553 3.82225 16.2361 5.66674 16.2361 8.03816C16.2361 11.1998 14.7869 13.8331 12.8108 13.8331C11.6248 13.8331 10.8342 12.9108 11.0979 11.7249C11.3616 10.4078 12.0201 8.82654 12.0201 7.90654C12.0201 6.98654 11.4932 6.32574 10.571 6.32574C9.38502 6.32574 8.46277 7.51123 8.46277 9.09248C8.46277 10.1463 8.85809 10.8049 8.85809 10.8049C8.85809 10.8049 7.53873 15.9426 7.40711 16.8649C7.0118 18.5777 7.40711 20.818 7.40711 20.9492C7.40711 21.0803 7.53873 21.0808 7.6708 20.9492C7.80287 20.8175 9.11998 19.1047 9.64736 17.3918C9.77899 16.8649 10.438 14.3618 10.438 14.3618C10.8329 15.0204 11.8872 15.6794 13.0727 15.6794C16.4979 15.6794 18.8676 12.5173 18.8676 8.30141C18.868 5.13936 16.1026 2.10938 11.8867 2.10938Z" fill="#ADD79E"/>
</svg>
